ply
format ascii 1.0
comment Created by CloudCompare v2.10.2 (Zephyrus)
comment Created 11/9/19 10:12 PM
obj_info Generated by CloudCompare!
element vertex 174
property float x
property float y
property float z
element face 194
property list uchar int vertex_indices
end_header
-0.00262463 37.6857 0.0755217 
-0.00262903 37.6854 0.0755217 
-0.254156 37.6891 0.0755217 
-0.254338 37.6887 0.0755217 
-0.280016 37.7223 0.0755217 
-0.280415 37.7222 0.0755217 
-0.265245 37.79 0.0755217 
-0.265514 37.7903 0.0755217 
-0.0500958 37.7873 0.0755217 
-0.0501231 37.7876 0.0755217 
0.0722023 37.8093 0.0755217 
0.0721359 37.8096 0.0755217 
0.162241 37.836 0.0755217 
0.162221 37.8364 0.0755217 
0.279927 37.8136 0.0755217 
0.280415 37.814 0.0755217 
0.28009 37.81 0.0755217 
0.280415 37.8096 0.0755217 
0.198797 37.8245 0.0755217 
0.0035509 37.7698 0.0755217 
0.00372485 37.7696 0.0755217 
0.00169214 37.6857 0.0755217 
0.00203076 37.6853 0.0755217 
-0.265177 37.7896 0.0755217 
-0.280056 37.7225 0.0755217 
-0.27974 37.7226 0.0755217 
-0.253663 37.689 0.0755217 
0.00167981 37.6856 0.0755217 
0.00135437 37.686 0.0755217 
0.00338745 37.7703 0.0755217 
0.198816 37.8248 0.0755217 
0.198797 37.8252 0.0755217 
0.279738 37.8103 0.0755217 
0.279401 37.814 0.0755217 
0.162545 37.836 0.0755217 
0.16256 37.8357 0.0755217 
0.073408 37.8096 0.0755217 
0.0734902 37.8093 0.0755217 
-0.0497847 37.7869 0.0755217 
-0.265269 37.7899 0.0755217 
-0.265176 37.7896 0.0755217 
0.279487 37.8141 0.0755217 
-0.253748 37.6889 0.0755217 
-0.265388 37.7898 0.0755217 
0.28004 37.8099 0.0755217 
0.198782 37.8248 0.0755217 
-0.0498229 37.7873 0.0755217 
0.00375891 37.77 0.0755217 
0.00203076 37.6853 0.0755217 
-0.00262903 37.6854 0.0755217 
-0.254338 37.6887 0.0755217 
0.00203076 37.6853 -0.0755217 
-0.00262903 37.6854 -0.0755217 
-0.254338 37.6887 -0.0755217 
-0.254338 37.6887 0.0755217 
-0.280415 37.7222 0.0755217 
-0.254338 37.6887 -0.0755217 
-0.280415 37.7222 -0.0755217 
-0.280415 37.7222 0.0755217 
-0.265514 37.7903 0.0755217 
-0.280415 37.7222 -0.0755217 
-0.265514 37.7903 -0.0755217 
-0.265514 37.7903 0.0755217 
-0.0501231 37.7876 0.0755217 
0.0721359 37.8096 0.0755217 
0.162221 37.8364 0.0755217 
0.280415 37.814 0.0755217 
-0.265514 37.7903 -0.0755217 
-0.0501231 37.7876 -0.0755217 
0.0721359 37.8096 -0.0755217 
0.162221 37.8364 -0.0755217 
0.280415 37.814 -0.0755217 
0.280415 37.814 0.0755217 
0.280415 37.8096 0.0755217 
0.280415 37.814 -0.0755217 
0.280415 37.8096 -0.0755217 
0.280415 37.8096 0.0755217 
0.198797 37.8245 0.0755217 
0.00372485 37.7696 0.0755217 
0.280415 37.8096 -0.0755217 
0.198797 37.8245 -0.0755217 
0.00372485 37.7696 -0.0755217 
0.00372485 37.7696 0.0755217 
0.00203076 37.6853 0.0755217 
0.00372485 37.7696 -0.0755217 
0.00203076 37.6853 -0.0755217 
-0.265177 37.7896 0.0755217 
-0.27974 37.7226 0.0755217 
-0.265177 37.7896 -0.0755217 
-0.27974 37.7226 -0.0755217 
-0.27974 37.7226 0.0755217 
-0.253663 37.689 0.0755217 
-0.27974 37.7226 -0.0755217 
-0.253663 37.689 -0.0755217 
-0.253663 37.689 0.0755217 
0.00135437 37.686 0.0755217 
-0.253663 37.689 -0.0755217 
0.00135437 37.686 -0.0755217 
0.00135437 37.686 0.0755217 
0.00338745 37.7703 0.0755217 
0.00135437 37.686 -0.0755217 
0.00338745 37.7703 -0.0755217 
0.00338745 37.7703 0.0755217 
0.198797 37.8252 0.0755217 
0.279738 37.8103 0.0755217 
0.00338745 37.7703 -0.0755217 
0.198797 37.8252 -0.0755217 
0.279738 37.8103 -0.0755217 
0.279738 37.8103 0.0755217 
0.279401 37.814 0.0755217 
0.279738 37.8103 -0.0755217 
0.279401 37.814 -0.0755217 
0.279401 37.814 0.0755217 
0.16256 37.8357 0.0755217 
0.0734902 37.8093 0.0755217 
-0.0497847 37.7869 0.0755217 
-0.265176 37.7896 0.0755217 
0.279401 37.814 -0.0755217 
0.16256 37.8357 -0.0755217 
0.0734902 37.8093 -0.0755217 
-0.0497847 37.7869 -0.0755217 
-0.265176 37.7896 -0.0755217 
-0.265176 37.7896 0.0755217 
-0.265177 37.7896 0.0755217 
-0.265176 37.7896 -0.0755217 
-0.265177 37.7896 -0.0755217 
-0.00262463 37.6857 -0.0755217 
-0.00262903 37.6854 -0.0755217 
-0.254156 37.6891 -0.0755217 
-0.254338 37.6887 -0.0755217 
-0.280016 37.7223 -0.0755217 
-0.280415 37.7222 -0.0755217 
-0.265245 37.79 -0.0755217 
-0.265514 37.7903 -0.0755217 
-0.0500958 37.7873 -0.0755217 
-0.0501231 37.7876 -0.0755217 
0.0722023 37.8093 -0.0755217 
0.0721359 37.8096 -0.0755217 
0.162241 37.836 -0.0755217 
0.162221 37.8364 -0.0755217 
0.279927 37.8136 -0.0755217 
0.280415 37.814 -0.0755217 
0.28009 37.81 -0.0755217 
0.280415 37.8096 -0.0755217 
0.198797 37.8245 -0.0755217 
0.0035509 37.7698 -0.0755217 
0.00372485 37.7696 -0.0755217 
0.00169214 37.6857 -0.0755217 
0.00203076 37.6853 -0.0755217 
-0.265177 37.7896 -0.0755217 
-0.280056 37.7225 -0.0755217 
-0.27974 37.7226 -0.0755217 
-0.253663 37.689 -0.0755217 
0.00167981 37.6856 -0.0755217 
0.00135437 37.686 -0.0755217 
0.00338745 37.7703 -0.0755217 
0.198816 37.8248 -0.0755217 
0.198797 37.8252 -0.0755217 
0.279738 37.8103 -0.0755217 
0.279401 37.814 -0.0755217 
0.162545 37.836 -0.0755217 
0.16256 37.8357 -0.0755217 
0.073408 37.8096 -0.0755217 
0.0734902 37.8093 -0.0755217 
-0.0497847 37.7869 -0.0755217 
-0.265269 37.7899 -0.0755217 
-0.265176 37.7896 -0.0755217 
0.279487 37.8141 -0.0755217 
-0.253748 37.6889 -0.0755217 
-0.265388 37.7898 -0.0755217 
0.28004 37.8099 -0.0755217 
0.198782 37.8248 -0.0755217 
-0.0498229 37.7873 -0.0755217 
0.00375891 37.77 -0.0755217 
3 2 3 42 
3 4 5 2 
3 43 39 7 
3 8 9 6 
3 10 11 46 
3 12 13 36 
3 14 15 41 
3 17 15 16 
3 45 18 30 
3 19 20 47 
3 22 20 21 
3 0 1 27 
3 25 23 24 
3 42 26 2 
3 27 28 0 
3 47 29 19 
3 30 31 45 
3 44 32 30 
3 41 33 14 
3 35 33 34 
3 36 37 12 
3 46 38 10 
3 46 8 38 
3 43 23 39 
3 3 1 42 
3 0 42 1 
3 3 2 5 
3 43 7 24 
3 6 7 39 
3 7 5 24 
3 4 24 5 
3 7 6 9 
3 11 9 46 
3 8 46 9 
3 13 11 36 
3 10 36 11 
3 41 15 34 
3 15 13 34 
3 12 34 13 
3 14 16 15 
3 30 18 44 
3 18 17 44 
3 16 44 17 
3 20 18 47 
3 45 47 18 
3 19 21 20 
3 1 22 27 
3 21 27 22 
3 43 24 23 
3 26 25 2 
3 2 25 4 
3 24 4 25 
3 28 26 0 
3 42 0 26 
3 29 28 19 
3 19 28 21 
3 27 21 28 
3 45 31 47 
3 29 47 31 
3 31 30 32 
3 33 32 14 
3 14 32 16 
3 44 16 32 
3 41 34 33 
3 37 35 12 
3 34 12 35 
3 38 37 10 
3 36 10 37 
3 38 8 40 
3 8 6 40 
3 39 40 6 
3 40 39 23 
3 0 0 0 
3 51 48 49 
3 51 49 52 
3 52 49 50 
3 52 50 53 
3 56 54 55 
3 56 55 57 
3 60 58 59 
3 60 59 61 
3 67 62 63 
3 67 63 68 
3 68 63 64 
3 68 64 69 
3 69 64 65 
3 69 65 70 
3 70 65 66 
3 70 66 71 
3 74 72 73 
3 74 73 75 
3 79 76 77 
3 79 77 80 
3 80 77 78 
3 80 78 81 
3 84 82 83 
3 84 83 85 
3 88 86 87 
3 88 87 89 
3 92 90 91 
3 92 91 93 
3 96 94 95 
3 96 95 97 
3 100 98 99 
3 100 99 101 
3 105 102 103 
3 105 103 106 
3 106 103 104 
3 106 104 107 
3 110 108 109 
3 110 109 111 
3 117 112 113 
3 117 113 118 
3 118 113 114 
3 118 114 119 
3 119 114 115 
3 119 115 120 
3 120 115 116 
3 120 116 121 
3 124 122 123 
3 124 123 125 
3 0 0 0 
3 129 128 168 
3 131 130 128 
3 165 169 133 
3 135 134 132 
3 137 136 172 
3 139 138 162 
3 141 140 167 
3 141 143 142 
3 144 171 156 
3 146 145 173 
3 146 148 147 
3 127 126 153 
3 149 151 150 
3 152 168 128 
3 154 153 126 
3 155 173 145 
3 157 156 171 
3 158 170 156 
3 159 167 140 
3 159 161 160 
3 163 162 138 
3 164 172 136 
3 134 172 164 
3 149 169 165 
3 127 129 168 
3 168 126 127 
3 128 129 131 
3 133 169 150 
3 133 132 165 
3 131 133 150 
3 150 130 131 
3 132 133 135 
3 135 137 172 
3 172 134 135 
3 137 139 162 
3 162 136 137 
3 141 167 160 
3 139 141 160 
3 160 138 139 
3 142 140 141 
3 144 156 170 
3 143 144 170 
3 170 142 143 
3 144 146 173 
3 173 171 144 
3 147 145 146 
3 148 127 153 
3 153 147 148 
3 150 169 149 
3 151 152 128 
3 151 128 130 
3 130 150 151 
3 152 154 126 
3 126 168 152 
3 154 155 145 
3 154 145 147 
3 147 153 154 
3 157 171 173 
3 173 155 157 
3 156 157 158 
3 158 159 140 
3 158 140 142 
3 142 170 158 
3 160 167 159 
3 161 163 138 
3 138 160 161 
3 163 164 136 
3 136 162 163 
3 134 164 166 
3 132 134 166 
3 166 165 132 
3 165 166 149 
